<mxfile host="app.diagrams.net" modified="2024-03-07T19:15:35.009Z" agent="Mozilla/5.0 (Windows NT 10.0; Win64; x64) AppleWebKit/537.36 (KHTML, like Gecko) Chrome/122.0.0.0 Safari/537.36" etag="27ScVKewq1WTpldq3g00" version="24.0.2" type="device">
  <diagram name="PÃ¡gina-1" id="uWIIk0V6ojROc7ztTyy0">
    <mxGraphModel dx="1434" dy="746" grid="1" gridSize="10" guides="1" tooltips="1" connect="1" arrows="1" fold="1" page="1" pageScale="1" pageWidth="827" pageHeight="1169" math="0" shadow="0">
      <root>
        <mxCell id="0" />
        <mxCell id="1" parent="0" />
        <mxCell id="hX7vG7o3N55Y6YIow-t2-1" value="" style="shape=mxgraph.cisco.computers_and_peripherals.pc;html=1;pointerEvents=1;dashed=0;fillColor=#036897;strokeColor=#ffffff;strokeWidth=2;verticalLabelPosition=bottom;verticalAlign=top;align=center;outlineConnect=0;" vertex="1" parent="1">
          <mxGeometry x="342" y="230" width="78" height="70" as="geometry" />
        </mxCell>
        <mxCell id="hX7vG7o3N55Y6YIow-t2-2" value="pc34.juan.ta.org" style="text;html=1;align=center;verticalAlign=middle;resizable=0;points=[];autosize=1;strokeColor=none;fillColor=none;" vertex="1" parent="1">
          <mxGeometry x="310" y="300" width="110" height="30" as="geometry" />
        </mxCell>
        <mxCell id="hX7vG7o3N55Y6YIow-t2-7" value="sevilla" style="ellipse;whiteSpace=wrap;html=1;" vertex="1" parent="1">
          <mxGeometry x="550" y="250" width="70" height="40" as="geometry" />
        </mxCell>
        <mxCell id="hX7vG7o3N55Y6YIow-t2-9" value="www" style="ellipse;whiteSpace=wrap;html=1;" vertex="1" parent="1">
          <mxGeometry x="660" y="250" width="70" height="40" as="geometry" />
        </mxCell>
        <mxCell id="hX7vG7o3N55Y6YIow-t2-29" value="1" style="text;html=1;align=center;verticalAlign=middle;resizable=0;points=[];autosize=1;strokeColor=none;fillColor=none;" vertex="1" parent="1">
          <mxGeometry x="520" y="220" width="30" height="30" as="geometry" />
        </mxCell>
        <mxCell id="hX7vG7o3N55Y6YIow-t2-30" value="2" style="text;html=1;align=center;verticalAlign=middle;resizable=0;points=[];autosize=1;strokeColor=none;fillColor=none;" vertex="1" parent="1">
          <mxGeometry x="630" y="230" width="30" height="30" as="geometry" />
        </mxCell>
        <mxCell id="hX7vG7o3N55Y6YIow-t2-31" value="4" style="text;html=1;align=center;verticalAlign=middle;resizable=0;points=[];autosize=1;strokeColor=none;fillColor=none;" vertex="1" parent="1">
          <mxGeometry x="640" y="290" width="30" height="30" as="geometry" />
        </mxCell>
        <mxCell id="hX7vG7o3N55Y6YIow-t2-37" value="3" style="text;html=1;align=center;verticalAlign=middle;resizable=0;points=[];autosize=1;strokeColor=none;fillColor=none;" vertex="1" parent="1">
          <mxGeometry x="520" y="290" width="30" height="30" as="geometry" />
        </mxCell>
        <mxCell id="hX7vG7o3N55Y6YIow-t2-40" value="DNS&amp;nbsp;" style="text;html=1;align=center;verticalAlign=middle;resizable=0;points=[];autosize=1;strokeColor=none;fillColor=none;" vertex="1" parent="1">
          <mxGeometry x="435" y="255" width="50" height="30" as="geometry" />
        </mxCell>
        <mxCell id="hX7vG7o3N55Y6YIow-t2-46" value="" style="endArrow=classic;html=1;rounded=0;entryX=0.143;entryY=0;entryDx=0;entryDy=0;entryPerimeter=0;" edge="1" parent="1">
          <mxGeometry width="50" height="50" relative="1" as="geometry">
            <mxPoint x="510" y="250" as="sourcePoint" />
            <mxPoint x="560" y="250" as="targetPoint" />
          </mxGeometry>
        </mxCell>
        <mxCell id="hX7vG7o3N55Y6YIow-t2-47" value="" style="endArrow=classic;html=1;rounded=0;entryX=0.143;entryY=0;entryDx=0;entryDy=0;entryPerimeter=0;" edge="1" parent="1">
          <mxGeometry width="50" height="50" relative="1" as="geometry">
            <mxPoint x="620" y="250" as="sourcePoint" />
            <mxPoint x="670" y="250" as="targetPoint" />
          </mxGeometry>
        </mxCell>
        <mxCell id="hX7vG7o3N55Y6YIow-t2-48" value="" style="endArrow=classic;html=1;rounded=0;" edge="1" parent="1">
          <mxGeometry width="50" height="50" relative="1" as="geometry">
            <mxPoint x="670" y="290" as="sourcePoint" />
            <mxPoint x="620" y="290" as="targetPoint" />
          </mxGeometry>
        </mxCell>
        <mxCell id="hX7vG7o3N55Y6YIow-t2-49" value="" style="endArrow=classic;html=1;rounded=0;" edge="1" parent="1">
          <mxGeometry width="50" height="50" relative="1" as="geometry">
            <mxPoint x="560" y="289" as="sourcePoint" />
            <mxPoint x="510" y="289" as="targetPoint" />
          </mxGeometry>
        </mxCell>
        <mxCell id="hX7vG7o3N55Y6YIow-t2-55" value="." style="ellipse;whiteSpace=wrap;html=1;" vertex="1" parent="1">
          <mxGeometry x="340" y="520" width="50" height="45" as="geometry" />
        </mxCell>
        <mxCell id="hX7vG7o3N55Y6YIow-t2-57" value="" style="endArrow=none;html=1;rounded=0;" edge="1" parent="1">
          <mxGeometry width="50" height="50" relative="1" as="geometry">
            <mxPoint x="364.5" y="620" as="sourcePoint" />
            <mxPoint x="364.5" y="565" as="targetPoint" />
          </mxGeometry>
        </mxCell>
        <mxCell id="hX7vG7o3N55Y6YIow-t2-58" value="eu" style="ellipse;whiteSpace=wrap;html=1;" vertex="1" parent="1">
          <mxGeometry x="340" y="620" width="50" height="45" as="geometry" />
        </mxCell>
        <mxCell id="hX7vG7o3N55Y6YIow-t2-59" value="motorizado" style="ellipse;whiteSpace=wrap;html=1;" vertex="1" parent="1">
          <mxGeometry x="315" y="710" width="100" height="45" as="geometry" />
        </mxCell>
        <mxCell id="hX7vG7o3N55Y6YIow-t2-60" value="" style="endArrow=none;html=1;rounded=0;" edge="1" parent="1">
          <mxGeometry width="50" height="50" relative="1" as="geometry">
            <mxPoint x="364.5" y="810" as="sourcePoint" />
            <mxPoint x="364.5" y="755" as="targetPoint" />
          </mxGeometry>
        </mxCell>
        <mxCell id="hX7vG7o3N55Y6YIow-t2-61" value="maligno" style="ellipse;whiteSpace=wrap;html=1;" vertex="1" parent="1">
          <mxGeometry x="332.5" y="810" width="65" height="45" as="geometry" />
        </mxCell>
        <mxCell id="hX7vG7o3N55Y6YIow-t2-62" value="" style="endArrow=none;html=1;rounded=0;exitX=0.16;exitY=0.022;exitDx=0;exitDy=0;exitPerimeter=0;entryX=1;entryY=1;entryDx=0;entryDy=0;" edge="1" parent="1" source="hX7vG7o3N55Y6YIow-t2-65" target="hX7vG7o3N55Y6YIow-t2-61">
          <mxGeometry width="50" height="50" relative="1" as="geometry">
            <mxPoint x="419" y="895" as="sourcePoint" />
            <mxPoint x="400" y="850" as="targetPoint" />
          </mxGeometry>
        </mxCell>
        <mxCell id="hX7vG7o3N55Y6YIow-t2-64" value="" style="endArrow=none;html=1;rounded=0;exitX=0.5;exitY=0;exitDx=0;exitDy=0;" edge="1" parent="1" source="hX7vG7o3N55Y6YIow-t2-59">
          <mxGeometry width="50" height="50" relative="1" as="geometry">
            <mxPoint x="364.5" y="695" as="sourcePoint" />
            <mxPoint x="364.5" y="665" as="targetPoint" />
          </mxGeometry>
        </mxCell>
        <mxCell id="hX7vG7o3N55Y6YIow-t2-65" value="duende" style="ellipse;whiteSpace=wrap;html=1;" vertex="1" parent="1">
          <mxGeometry x="435" y="870" width="50" height="45" as="geometry" />
        </mxCell>
        <mxCell id="hX7vG7o3N55Y6YIow-t2-72" value="" style="endArrow=none;html=1;rounded=0;" edge="1" parent="1">
          <mxGeometry width="50" height="50" relative="1" as="geometry">
            <mxPoint x="290" y="900" as="sourcePoint" />
            <mxPoint x="340" y="850" as="targetPoint" />
          </mxGeometry>
        </mxCell>
        <mxCell id="hX7vG7o3N55Y6YIow-t2-73" value="mail" style="rounded=0;whiteSpace=wrap;html=1;" vertex="1" parent="1">
          <mxGeometry x="237" y="900" width="78" height="25" as="geometry" />
        </mxCell>
      </root>
    </mxGraphModel>
  </diagram>
</mxfile>
